<?xml version="1.0" encoding="UTF-8"?>
<svg width="25px" height="12px" viewBox="0 0 25 12" version="1.1" xmlns="http://www.w3.org/2000/svg" xmlns:xlink="http://www.w3.org/1999/xlink">
    <title>Icon/Arrow Small</title>
    <g id="Symbols" stroke="none" stroke-width="1" fill="none" fill-rule="evenodd">
        <g id="Card/Blog-Mobile-1" transform="translate(-232.000000, -382.000000)" fill="#005DBA" fill-rule="nonzero">
            <g id="Icon/Arrow-Small">
                <g>
                    <g transform="translate(247.000000, 376.000000)">
                        <path d="M-2.25003755,23.9998856 C-2.09378816,23.9998856 -1.9531635,23.9373859 -1.82816356,23.812386 L2.81245038,19.1717721 C2.93745032,19.0467721 2.99994993,18.9061475 2.99994993,18.7498981 C2.99994993,18.5936487 2.93745032,18.453024 2.81245038,18.3280241 L2.43745127,17.953025 C2.31245133,17.828025 2.17182667,17.7655254 2.01557728,17.7655254 C1.85932789,17.7655254 1.73432795,17.828025 1.64057817,17.953025 L-1.40628956,20.9998927 L-1.40628956,1.1249401 C-1.40628956,0.812440604 -1.51566406,0.546816714 -1.73441378,0.328066997 C-1.9531635,0.10931728 -2.21878739,-5.72203224e-05 -2.53128688,-5.72203224e-05 C-2.84618264,0.0383822276 -3.0336822,0.147756967 -3.09378554,0.328066997 C-3.1586819,0.522756073 -3.1586819,0.975879992 -3.09378554,1.68743876 L-3.09378554,20.9998927 L-6.14065327,17.953025 C-6.23440305,17.828025 -6.35940299,17.7655254 -6.51565238,17.7655254 C-6.67190177,17.7655254 -6.81252643,17.828025 -6.93752638,17.953025 L-7.31252548,18.3280241 C-7.43752542,18.453024 -7.50002503,18.5936487 -7.50002503,18.7498981 C-7.50002503,18.9061475 -7.43752542,19.0467721 -7.31252548,19.1717721 L-2.67191155,23.812386 C-2.5469116,23.9373859 -2.40628694,23.9998856 -2.25003755,23.9998856 Z" id="Arrow/Small" transform="translate(-2.250038, 11.999914) rotate(-90.000000) translate(2.250038, -11.999914) "></path>
                    </g>
                </g>
            </g>
        </g>
    </g>
</svg>
