<?xml version="1.0" encoding="UTF-8"?>
<!DOCTYPE svg PUBLIC "-//W3C//DTD SVG 1.1//EN" "http://www.w3.org/Graphics/SVG/1.1/DTD/svg11.dtd">
<svg xmlns="http://www.w3.org/2000/svg" version="1.1" width="412px" height="528px" style="shape-rendering:geometricPrecision; text-rendering:geometricPrecision; image-rendering:optimizeQuality; fill-rule:evenodd; clip-rule:evenodd" xmlns:xlink="http://www.w3.org/1999/xlink">
<g><path style="opacity:1" fill="#fefefe" d="M -0.5,-0.5 C 30.1667,-0.5 60.8333,-0.5 91.5,-0.5C 98.7673,4.92201 105.934,10.5887 113,16.5C 113.29,21.6221 114.123,26.6221 115.5,31.5C 113.673,38.1398 111.839,44.8065 110,51.5C 104.773,56.1949 99.2725,60.5282 93.5,64.5C 95.316,66.8169 97.316,68.9835 99.5,71C 103.381,71.6072 106.714,73.2738 109.5,76C 112.952,79.7336 115.785,83.9003 118,88.5C 123.428,93.9309 129.428,98.5975 136,102.5C 134.822,105.617 134.489,108.95 135,112.5C 136.558,114.359 138.391,115.859 140.5,117C 132.645,115.681 128.978,119.181 129.5,127.5C 126.813,127.664 124.146,127.497 121.5,127C 112.958,120.447 103.291,117.113 92.5,117C 87.3718,112.546 81.7051,108.879 75.5,106C 74.6667,105.167 73.8333,104.333 73,103.5C 72.124,99.6595 70.7906,95.9928 69,92.5C 65.4779,89.7341 62.1446,86.7341 59,83.5C 57.6617,73.4905 51.995,68.4905 42,68.5C 33.388,69.7777 24.888,71.6111 16.5,74C 10.8431,74.4994 5.17645,74.6661 -0.5,74.5C -0.5,49.5 -0.5,24.5 -0.5,-0.5 Z"/></g>
<g><path style="opacity:1" fill="#fefefe" d="M 94.5,-0.5 C 200.167,-0.5 305.833,-0.5 411.5,-0.5C 411.5,8.16667 411.5,16.8333 411.5,25.5C 392.766,37.2023 373.099,47.369 352.5,56C 345.081,60.1248 337.914,64.6248 331,69.5C 329.953,75.8039 328.953,82.1373 328,88.5C 325.036,92.4658 321.703,96.1325 318,99.5C 317.751,102.177 316.751,104.51 315,106.5C 313.184,116.099 311.85,125.766 311,135.5C 308.404,140.887 306.904,146.553 306.5,152.5C 308.903,152.607 310.736,151.607 312,149.5C 315.83,140.869 318.497,131.869 320,122.5C 328.59,107.57 339.09,94.0696 351.5,82C 355.007,79.746 358.673,77.746 362.5,76C 369.794,74.0206 375.794,75.8539 380.5,81.5C 377.946,86.1149 375.279,90.6149 372.5,95C 369.956,96.092 367.289,96.7586 364.5,97C 362.415,98.0414 360.748,99.5414 359.5,101.5C 364.384,103.209 369.384,103.709 374.5,103C 377.549,99.6459 381.216,97.6459 385.5,97C 382.609,101.517 381.942,106.351 383.5,111.5C 384.833,110.833 386.167,110.167 387.5,109.5C 392.489,113.832 398.156,116.832 404.5,118.5C 406.818,118.003 409.152,117.67 411.5,117.5C 411.5,120.167 411.5,122.833 411.5,125.5C 410.448,125.351 409.448,125.517 408.5,126C 402.219,135.216 395.219,143.882 387.5,152C 382.505,154.549 379.172,153.049 377.5,147.5C 375.234,146.686 372.9,146.186 370.5,146C 365.167,139 359.833,132 354.5,125C 350.527,124.002 346.527,123.669 342.5,124C 340.65,126.018 338.65,127.851 336.5,129.5C 331.254,125.979 328.087,127.313 327,133.5C 325,141.167 325,148.833 327,156.5C 327.792,158.587 328.959,160.421 330.5,162C 329.769,169.226 326.602,175.06 321,179.5C 320.798,181.256 320.298,182.922 319.5,184.5C 303.955,191.293 288.288,197.793 272.5,204C 266.865,209.207 263.698,215.707 263,223.5C 258.641,227.559 255.975,232.559 255,238.5C 244.324,242.28 233.824,246.446 223.5,251C 221.833,252.667 220.167,254.333 218.5,256C 220.122,259.565 221.622,263.065 223,266.5C 220.806,269.181 217.973,270.681 214.5,271C 213.13,272.441 212.13,274.108 211.5,276C 205.229,278.485 198.895,280.818 192.5,283C 190.288,285.921 188.455,289.088 187,292.5C 185.629,294.041 184.129,295.375 182.5,296.5C 183.434,289.763 182.101,283.596 178.5,278C 180.233,274.134 181.566,270.134 182.5,266C 181.699,263.402 180.366,261.069 178.5,259C 179.5,258.333 180.5,258.333 181.5,259C 184.495,261.475 186.828,264.308 188.5,267.5C 196.426,267.824 204.26,267.824 212,267.5C 210.89,264.592 211.39,261.925 213.5,259.5C 211.678,256.67 209.178,254.67 206,253.5C 205.51,252.207 205.343,250.873 205.5,249.5C 204.127,249.657 202.793,249.49 201.5,249C 200.406,247.22 199.406,245.386 198.5,243.5C 196.902,244.485 195.235,244.651 193.5,244C 192.547,242.045 191.213,240.378 189.5,239C 169.835,237.046 150.169,237.046 130.5,239C 130,239.5 129.5,240 129,240.5C 127.681,238.513 125.848,237.346 123.5,237C 125.64,236.027 127.307,234.527 128.5,232.5C 124.765,231.847 121.099,231.014 117.5,230C 115.771,228.211 115.104,226.044 115.5,223.5C 113.5,223.5 111.5,223.5 109.5,223.5C 111.61,216.586 108.943,212.92 101.5,212.5C 101.5,210.167 101.5,207.833 101.5,205.5C 97.9661,205.924 94.4661,206.591 91,207.5C 85.0653,205.949 79.5653,203.449 74.5,200C 70.5666,193.285 64.7333,189.785 57,189.5C 52.8036,189.973 48.637,190.639 44.5,191.5C 40.3061,190.269 36.1395,188.935 32,187.5C 29.0585,187.437 28.0585,188.77 29,191.5C 31.3443,193.774 34.1776,194.941 37.5,195C 35.9242,197.077 33.9242,198.577 31.5,199.5C 30.7564,198.009 30.0897,196.509 29.5,195C 28.5,194.333 27.5,194.333 26.5,195C 25.5495,198.057 25.2161,201.223 25.5,204.5C 22.6851,204.108 20.1851,203.108 18,201.5C 16.3732,201.625 14.8732,202.125 13.5,203C 11.9678,206.306 10.8011,209.806 10,213.5C 7.18644,216.581 3.68644,218.247 -0.5,218.5C -0.5,171.167 -0.5,123.833 -0.5,76.5C 10.5081,77.3921 21.1748,75.8921 31.5,72C 37.1407,70.9279 42.8074,70.5946 48.5,71C 50.6238,72.1217 52.4571,73.6217 54,75.5C 54.9192,79.5181 56.5859,83.1847 59,86.5C 65.4966,89.9793 69.1632,95.3127 70,102.5C 70.7845,104.286 71.9512,105.786 73.5,107C 76.8333,108.667 80.1667,110.333 83.5,112C 88.5721,118.533 95.2387,121.199 103.5,120C 109.832,121.334 115.499,124 120.5,128C 124.152,128.499 127.818,128.665 131.5,128.5C 131.257,125.117 131.924,121.951 133.5,119C 136.507,118.699 139.507,118.865 142.5,119.5C 142.657,118.127 142.49,116.793 142,115.5C 140.333,114.5 138.667,113.5 137,112.5C 136.75,109.047 137.083,105.714 138,102.5C 132.356,98.3572 126.856,94.0239 121.5,89.5C 119.165,86.8338 117.331,83.8338 116,80.5C 110.664,74.3466 104.331,69.6799 97,66.5C 96.2506,65.365 96.4173,64.365 97.5,63.5C 102.423,60.745 106.923,57.4117 111,53.5C 113.192,46.3396 115.692,39.3396 118.5,32.5C 116.158,27.096 114.991,21.4293 115,15.5C 108.267,9.92115 101.434,4.58782 94.5,-0.5 Z"/></g>
<g><path style="opacity:1" fill="#fefefe" d="M 411.5,27.5 C 411.5,54.1667 411.5,80.8333 411.5,107.5C 406.701,108.834 403.201,107.167 401,102.5C 399.539,105.679 398.705,109.012 398.5,112.5C 402.842,112.739 407.176,113.073 411.5,113.5C 411.5,114.5 411.5,115.5 411.5,116.5C 408.15,116.665 404.817,116.498 401.5,116C 396.7,113.431 392.033,110.598 387.5,107.5C 385.538,108.854 384.538,108.187 384.5,105.5C 385.068,102.527 386.068,99.6933 387.5,97C 386.591,94.6807 384.925,94.0141 382.5,95C 379.476,96.5134 376.809,98.5134 374.5,101C 359.093,102.01 359.093,100.343 374.5,96C 377.354,91.1078 380.021,86.1078 382.5,81C 377.812,74.4997 371.479,72.1664 363.5,74C 358.554,75.8061 353.888,78.1394 349.5,81C 337.179,93.4866 326.679,107.32 318,122.5C 317.036,128.993 315.702,135.326 314,141.5C 312.587,144.661 310.92,147.661 309,150.5C 309.146,146.041 310.146,141.708 312,137.5C 313.747,124.53 316.413,111.864 320,99.5C 323.703,96.1325 327.036,92.4658 330,88.5C 331.186,82.9155 331.852,77.2488 332,71.5C 333.5,70 335,68.5 336.5,67C 353.202,57.2017 370.536,48.535 388.5,41C 396.222,36.4769 403.888,31.9769 411.5,27.5 Z"/></g>
<g><path style="opacity:1" fill="#d5dfe6" d="M 383.5,51.5 C 391.174,51.3336 398.841,51.5003 406.5,52C 407.727,53.5874 407.394,54.9207 405.5,56C 391.793,63.8446 377.46,65.3446 362.5,60.5C 363.648,58.8513 364.981,57.3513 366.5,56C 372.585,55.5541 378.251,54.0541 383.5,51.5 Z"/></g>
<g><path style="opacity:1" fill="#fdfdfe" d="M 384.5,52.5 C 390.86,53.6323 397.194,53.6323 403.5,52.5C 404.308,52.8076 404.975,53.3076 405.5,54C 393.153,61.5081 380.153,63.0081 366.5,58.5C 370.013,57.0682 373.68,56.2348 377.5,56C 380.069,55.1016 382.402,53.935 384.5,52.5 Z"/></g>
<g><path style="opacity:1" fill="#d3dee5" d="M 91.5,-0.5 C 92.5,-0.5 93.5,-0.5 94.5,-0.5C 101.434,4.58782 108.267,9.92115 115,15.5C 114.991,21.4293 116.158,27.096 118.5,32.5C 115.692,39.3396 113.192,46.3396 111,53.5C 106.923,57.4117 102.423,60.745 97.5,63.5C 96.4173,64.365 96.2506,65.365 97,66.5C 104.331,69.6799 110.664,74.3466 116,80.5C 117.331,83.8338 119.165,86.8338 121.5,89.5C 126.856,94.0239 132.356,98.3572 138,102.5C 137.083,105.714 136.75,109.047 137,112.5C 138.667,113.5 140.333,114.5 142,115.5C 142.49,116.793 142.657,118.127 142.5,119.5C 139.507,118.865 136.507,118.699 133.5,119C 131.924,121.951 131.257,125.117 131.5,128.5C 127.818,128.665 124.152,128.499 120.5,128C 115.499,124 109.832,121.334 103.5,120C 95.2387,121.199 88.5721,118.533 83.5,112C 80.1667,110.333 76.8333,108.667 73.5,107C 71.9512,105.786 70.7845,104.286 70,102.5C 69.1632,95.3127 65.4966,89.9793 59,86.5C 56.5859,83.1847 54.9192,79.5181 54,75.5C 52.4571,73.6217 50.6238,72.1217 48.5,71C 42.8074,70.5946 37.1407,70.9279 31.5,72C 21.1748,75.8921 10.5081,77.3921 -0.5,76.5C -0.5,75.8333 -0.5,75.1667 -0.5,74.5C 5.17645,74.6661 10.8431,74.4994 16.5,74C 24.888,71.6111 33.388,69.7777 42,68.5C 51.995,68.4905 57.6617,73.4905 59,83.5C 62.1446,86.7341 65.4779,89.7341 69,92.5C 70.7906,95.9928 72.124,99.6595 73,103.5C 73.8333,104.333 74.6667,105.167 75.5,106C 81.7051,108.879 87.3718,112.546 92.5,117C 103.291,117.113 112.958,120.447 121.5,127C 124.146,127.497 126.813,127.664 129.5,127.5C 128.978,119.181 132.645,115.681 140.5,117C 138.391,115.859 136.558,114.359 135,112.5C 134.489,108.95 134.822,105.617 136,102.5C 129.428,98.5975 123.428,93.9309 118,88.5C 115.785,83.9003 112.952,79.7336 109.5,76C 106.714,73.2738 103.381,71.6072 99.5,71C 97.316,68.9835 95.316,66.8169 93.5,64.5C 99.2725,60.5282 104.773,56.1949 110,51.5C 111.839,44.8065 113.673,38.1398 115.5,31.5C 114.123,26.6221 113.29,21.6221 113,16.5C 105.934,10.5887 98.7673,4.92201 91.5,-0.5 Z"/></g>
<g><path style="opacity:1" fill="#d5dfe6" d="M 83.5,97.5 C 88.5306,97.1803 93.1973,98.3469 97.5,101C 99.2112,102.133 99.7112,103.633 99,105.5C 91.5131,106.873 84.0131,106.706 76.5,105C 75.4829,103.951 75.3162,102.784 76,101.5C 78.5138,99.9958 81.0138,98.6624 83.5,97.5 Z"/></g>
<g><path style="opacity:1" fill="#fdfdfe" d="M 82.5,99.5 C 88.2457,98.6944 93.2457,100.194 97.5,104C 91.1667,104.667 84.8333,104.667 78.5,104C 78.1667,103.667 77.8333,103.333 77.5,103C 79.2331,101.811 80.8998,100.644 82.5,99.5 Z"/></g>
<g><path style="opacity:1" fill="#d4dee5" d="M 411.5,107.5 C 411.5,108.167 411.5,108.833 411.5,109.5C 407.879,110.464 404.713,109.464 402,106.5C 401.5,107.5 401,108.5 400.5,109.5C 404.027,110.921 407.694,111.588 411.5,111.5C 411.5,112.167 411.5,112.833 411.5,113.5C 407.176,113.073 402.842,112.739 398.5,112.5C 398.705,109.012 399.539,105.679 401,102.5C 403.201,107.167 406.701,108.834 411.5,107.5 Z"/></g>
<g><path style="opacity:1" fill="#f9fbfb" d="M 411.5,109.5 C 411.5,110.167 411.5,110.833 411.5,111.5C 407.694,111.588 404.027,110.921 400.5,109.5C 401,108.5 401.5,107.5 402,106.5C 404.713,109.464 407.879,110.464 411.5,109.5 Z"/></g>
<g><path style="opacity:1" fill="#d1dce4" d="M 124.5,109.5 C 125.833,109.5 127.167,109.5 128.5,109.5C 128.22,113.225 126.22,114.392 122.5,113C 123.305,111.887 123.972,110.721 124.5,109.5 Z"/></g>
<g><path style="opacity:1" fill="#d2dce4" d="M 411.5,25.5 C 411.5,26.1667 411.5,26.8333 411.5,27.5C 403.888,31.9769 396.222,36.4769 388.5,41C 370.536,48.535 353.202,57.2017 336.5,67C 335,68.5 333.5,70 332,71.5C 331.852,77.2488 331.186,82.9155 330,88.5C 327.036,92.4658 323.703,96.1325 320,99.5C 316.413,111.864 313.747,124.53 312,137.5C 310.146,141.708 309.146,146.041 309,150.5C 310.92,147.661 312.587,144.661 314,141.5C 315.702,135.326 317.036,128.993 318,122.5C 326.679,107.32 337.179,93.4866 349.5,81C 353.888,78.1394 358.554,75.8061 363.5,74C 371.479,72.1664 377.812,74.4997 382.5,81C 380.021,86.1078 377.354,91.1078 374.5,96C 359.093,100.343 359.093,102.01 374.5,101C 376.809,98.5134 379.476,96.5134 382.5,95C 384.925,94.0141 386.591,94.6807 387.5,97C 386.068,99.6933 385.068,102.527 384.5,105.5C 384.538,108.187 385.538,108.854 387.5,107.5C 392.033,110.598 396.7,113.431 401.5,116C 404.817,116.498 408.15,116.665 411.5,116.5C 411.5,116.833 411.5,117.167 411.5,117.5C 409.152,117.67 406.818,118.003 404.5,118.5C 398.156,116.832 392.489,113.832 387.5,109.5C 386.167,110.167 384.833,110.833 383.5,111.5C 381.942,106.351 382.609,101.517 385.5,97C 381.216,97.6459 377.549,99.6459 374.5,103C 369.384,103.709 364.384,103.209 359.5,101.5C 360.748,99.5414 362.415,98.0414 364.5,97C 367.289,96.7586 369.956,96.092 372.5,95C 375.279,90.6149 377.946,86.1149 380.5,81.5C 375.794,75.8539 369.794,74.0206 362.5,76C 358.673,77.746 355.007,79.746 351.5,82C 339.09,94.0696 328.59,107.57 320,122.5C 318.497,131.869 315.83,140.869 312,149.5C 310.736,151.607 308.903,152.607 306.5,152.5C 306.904,146.553 308.404,140.887 311,135.5C 311.85,125.766 313.184,116.099 315,106.5C 316.751,104.51 317.751,102.177 318,99.5C 321.703,96.1325 325.036,92.4658 328,88.5C 328.953,82.1373 329.953,75.8039 331,69.5C 337.914,64.6248 345.081,60.1248 352.5,56C 373.099,47.369 392.766,37.2023 411.5,25.5 Z"/></g>
<g><path style="opacity:1" fill="#fefefe" d="M 318.5,350.5 C 316.897,350.312 315.563,350.812 314.5,352C 317.076,353.122 319.743,354.122 322.5,355C 326.65,355.498 330.65,355.164 334.5,354C 336.795,357.297 339.462,360.297 342.5,363C 338.167,366 333.833,369 329.5,372C 333.372,372.891 337.038,372.391 340.5,370.5C 341.5,371.167 342.5,371.833 343.5,372.5C 346.495,368.622 347.661,369.289 347,374.5C 346.163,376.351 345.329,378.184 344.5,380C 339.868,381.072 335.201,382.072 330.5,383C 331.167,383.667 331.833,384.333 332.5,385C 340.182,384.843 341.182,387.01 335.5,391.5C 339.124,393.035 342.291,392.368 345,389.5C 345.495,391.473 345.662,393.473 345.5,395.5C 332.847,397.164 326.514,404.498 326.5,417.5C 324.436,417.687 322.436,418.187 320.5,419C 318.295,421.54 315.795,423.707 313,425.5C 310.718,428.273 310.218,431.273 311.5,434.5C 309.315,438.377 307.315,442.377 305.5,446.5C 302.484,450.515 298.817,453.848 294.5,456.5C 294.977,457.478 295.643,458.311 296.5,459C 294.139,459.197 292.472,460.364 291.5,462.5C 292.025,463.192 292.692,463.692 293.5,464C 291.627,466.994 290.127,470.161 289,473.5C 288.248,476.894 288.415,480.227 289.5,483.5C 288.617,484.548 287.95,485.715 287.5,487C 288.5,488.667 289.5,490.333 290.5,492C 289.67,493.465 289.504,494.965 290,496.5C 300.462,507.803 311.628,518.136 323.5,527.5C 305.5,527.5 287.5,527.5 269.5,527.5C 262.358,521.267 254.025,518.434 244.5,519C 243.087,522.246 241.087,525.08 238.5,527.5C 232.167,527.5 225.833,527.5 219.5,527.5C 213.964,526.222 208.464,524.556 203,522.5C 199.563,523.8 196.396,525.467 193.5,527.5C 128.833,527.5 64.1667,527.5 -0.5,527.5C -0.5,435.833 -0.5,344.167 -0.5,252.5C 3.31642,251.091 6.64975,248.924 9.5,246C 17.4082,243.429 23.5748,238.596 28,231.5C 27.7734,233.973 26.94,236.306 25.5,238.5C 25.7282,240.397 26.7282,241.73 28.5,242.5C 32.4413,241.053 36.2747,239.386 40,237.5C 48.069,241.313 56.569,242.48 65.5,241C 71.8057,235.041 79.3057,231.541 88,230.5C 92.1634,234.16 96.6634,234.493 101.5,231.5C 103.626,232.398 105.626,233.565 107.5,235C 104.629,235.118 101.962,235.784 99.5,237C 95.5,237.333 91.5,237.667 87.5,238C 79.5886,242.566 71.2552,246.233 62.5,249C 58.2152,258.745 56.2152,268.745 56.5,279C 60.4755,280.379 63.3088,279.213 65,275.5C 65.2118,278.252 66.0452,280.752 67.5,283C 67.0332,289.156 67.5332,295.323 69,301.5C 72.9055,307.638 76.5722,313.971 80,320.5C 84.0575,325.255 89.0575,328.255 95,329.5C 106.097,328.537 111.264,322.37 110.5,311C 110.497,306.99 109.664,303.156 108,299.5C 104.279,295.289 100.279,291.289 96,287.5C 93.6237,280.367 92.6237,273.034 93,265.5C 96.0584,265.237 99.2251,265.07 102.5,265C 104.769,262.638 105.102,259.971 103.5,257C 104.783,254.995 105.783,252.828 106.5,250.5C 105.687,249.186 104.687,248.019 103.5,247C 103.833,246.667 104.167,246.333 104.5,246C 112.668,246.963 121.002,247.463 129.5,247.5C 130.088,251.006 131.922,253.673 135,255.5C 136.308,257.134 137.142,258.968 137.5,261C 136.673,264.488 135.173,267.654 133,270.5C 132.318,274.18 133.818,276.68 137.5,278C 140.227,278.818 142.894,278.652 145.5,277.5C 146.398,273.089 148.732,269.756 152.5,267.5C 159.114,272.288 164.114,278.455 167.5,286C 165.19,287.637 163.69,289.804 163,292.5C 163.17,297.733 162.003,302.567 159.5,307C 159.759,308.261 160.426,309.261 161.5,310C 169.724,313.906 178.058,314.239 186.5,311C 190.381,308.893 194.381,307.059 198.5,305.5C 200.38,302.909 202.38,300.409 204.5,298C 214.082,291.629 222.248,283.795 229,274.5C 230.444,271.945 231.611,269.279 232.5,266.5C 231.103,263.594 229.103,261.094 226.5,259C 227.167,258.333 227.833,257.667 228.5,257C 242.839,256.938 256.005,253.105 268,245.5C 266.382,240.599 265.215,235.432 264.5,230C 269.033,225.095 271.533,219.262 272,212.5C 272.785,210.714 273.951,209.214 275.5,208C 292.73,201.385 309.73,194.218 326.5,186.5C 327.298,184.922 327.798,183.256 328,181.5C 330.667,180.167 332.667,178.167 334,175.5C 334.427,171.324 334.927,167.158 335.5,163C 335.3,159.767 334.133,156.933 332,154.5C 331.325,147.472 331.492,140.472 332.5,133.5C 337.889,135.32 342.223,133.82 345.5,129C 347.5,128.333 349.5,128.333 351.5,129C 357.285,135.428 361.285,142.762 363.5,151C 366.783,152.023 370.116,152.857 373.5,153.5C 376.477,156.821 380.144,158.821 384.5,159.5C 383.051,163.472 380.551,166.806 377,169.5C 376.325,173.898 373.825,175.898 369.5,175.5C 369.5,176.5 369.5,177.5 369.5,178.5C 364.185,178.497 362.185,181.164 363.5,186.5C 362.5,186.5 361.5,186.5 360.5,186.5C 361.316,192.067 358.983,194.901 353.5,195C 352.941,195.725 352.608,196.558 352.5,197.5C 352.81,203.123 352.976,208.79 353,214.5C 353.536,216.869 354.703,218.869 356.5,220.5C 355.456,222.768 355.289,225.101 356,227.5C 361.582,229.198 367.082,231.365 372.5,234C 371.083,236.826 369.583,236.993 368,234.5C 364.201,239.301 360.034,243.801 355.5,248C 344.952,252.268 336.286,258.935 329.5,268C 330,268.167 330.5,268.333 331,268.5C 335.507,265.664 340.34,263.498 345.5,262C 347.167,261 348.5,259.667 349.5,258C 350.5,257.333 351.5,257.333 352.5,258C 348.5,262 344.5,266 340.5,270C 336.371,272.321 332.037,274.154 327.5,275.5C 326.571,276.689 326.238,278.022 326.5,279.5C 327.873,279.343 329.207,279.51 330.5,280C 335.677,286.793 336.511,293.959 333,301.5C 332.138,303.087 331.471,304.754 331,306.5C 327.869,305.794 324.702,305.127 321.5,304.5C 320.5,305 319.5,305.5 318.5,306C 321.044,310.211 324.711,312.878 329.5,314C 330.667,315.167 331.833,316.333 333,317.5C 333.404,323.936 332.737,330.269 331,336.5C 330.667,335.167 330.333,333.833 330,332.5C 326.124,328.156 321.291,326.489 315.5,327.5C 315.5,325.5 315.5,323.5 315.5,321.5C 314.167,321.5 312.833,321.5 311.5,321.5C 311.931,315.427 309.265,313.26 303.5,315C 304.995,318.817 306.495,322.65 308,326.5C 315.461,331.692 314.961,333.359 306.5,331.5C 302.514,331.924 301.847,333.424 304.5,336C 309.496,336.611 314.496,337.111 319.5,337.5C 319.5,338.5 319.5,339.5 319.5,340.5C 316.531,339.671 313.531,339.505 310.5,340C 314.403,342.966 318.737,344.966 323.5,346C 322.975,346.692 322.308,347.192 321.5,347.5C 314.98,343.067 313.98,344.067 318.5,350.5 Z"/></g>
<g><path style="opacity:1" fill="#fefefe" d="M 411.5,135.5 C 411.5,137.167 411.5,138.833 411.5,140.5C 404.865,149.032 403.365,158.365 407,168.5C 408.11,170.037 409.61,170.703 411.5,170.5C 411.5,289.5 411.5,408.5 411.5,527.5C 383.167,527.5 354.833,527.5 326.5,527.5C 313.945,518.11 302.445,507.443 292,495.5C 292.939,492.132 292.106,489.132 289.5,486.5C 290.313,485.186 291.313,484.019 292.5,483C 290.496,480.159 289.996,476.993 291,473.5C 293.896,470.212 295.063,466.545 294.5,462.5C 298.021,461.85 299.021,460.017 297.5,457C 307.057,449.381 312.557,439.548 314,427.5C 317.415,422.875 321.915,419.875 327.5,418.5C 328.056,408.532 332.722,401.366 341.5,397C 343.473,396.505 345.473,396.338 347.5,396.5C 347.665,393.15 347.498,389.817 347,386.5C 345.758,387.872 344.258,388.872 342.5,389.5C 341.773,385.506 339.44,383.339 335.5,383C 339.287,382.84 342.954,382.174 346.5,381C 347.161,377.863 348.495,375.03 350.5,372.5C 349.12,367.487 346.453,366.487 342.5,369.5C 341.833,369.167 341.167,368.833 340.5,368.5C 338.922,369.64 337.256,370.14 335.5,370C 338.535,366.983 342.201,365.317 346.5,365C 343.167,361 339.833,357 336.5,353C 332.69,352.585 329.023,352.918 325.5,354C 327.037,352.89 327.703,351.39 327.5,349.5C 323.205,349.721 322.538,348.388 325.5,345.5C 323.972,344.139 322.305,342.972 320.5,342C 322.459,340.316 322.459,338.316 320.5,336C 317.833,335.667 315.167,335.333 312.5,335C 313.938,334.781 315.271,334.281 316.5,333.5C 314.883,330.216 312.55,327.549 309.5,325.5C 308.195,322.947 307.195,320.28 306.5,317.5C 307.167,316.167 307.833,316.167 308.5,317.5C 309.093,319.382 309.76,321.215 310.5,323C 311.448,323.483 312.448,323.649 313.5,323.5C 313.178,325.722 313.845,327.556 315.5,329C 320.422,328.621 324.588,330.121 328,333.5C 327.004,337.883 327.337,342.216 329,346.5C 330.154,347.743 331.488,348.743 333,349.5C 333.134,346.691 332.968,343.857 332.5,341C 334.363,333.265 335.196,325.432 335,317.5C 334.215,315.714 333.049,314.214 331.5,313C 328.343,312.258 325.677,310.758 323.5,308.5C 325.421,307.359 327.421,307.192 329.5,308C 330.308,309.706 331.641,310.539 333.5,310.5C 334.193,304.334 335.526,298.334 337.5,292.5C 337.06,287.798 335.56,283.464 333,279.5C 331.491,278.91 329.991,278.244 328.5,277.5C 332.417,275.579 336.417,273.745 340.5,272C 345.833,266.667 351.167,261.333 356.5,256C 353.833,255.333 351.167,255.333 348.5,256C 347.5,258.333 345.833,260 343.5,261C 341.112,261.303 338.945,262.137 337,263.5C 336.333,262.833 336.333,262.167 337,261.5C 342.747,257.041 348.914,253.207 355.5,250C 360.479,244.391 366.146,240.057 372.5,237C 374.875,234.824 377.208,232.657 379.5,230.5C 378.52,229.019 377.353,227.685 376,226.5C 374.987,228.895 373.32,230.561 371,231.5C 367.989,230.41 365.156,228.91 362.5,227C 360.866,226.506 359.199,226.34 357.5,226.5C 357.317,224.064 357.984,221.897 359.5,220C 353.757,215.253 352.424,209.419 355.5,202.5C 355.16,200.488 354.827,198.488 354.5,196.5C 357.325,196.919 359.491,195.919 361,193.5C 361.754,190.201 363.421,187.534 366,185.5C 366.494,183.866 366.66,182.199 366.5,180.5C 367.833,180.5 369.167,180.5 370.5,180.5C 370.5,179.5 370.5,178.5 370.5,177.5C 372.722,177.822 374.556,177.155 376,175.5C 378.599,170.572 381.932,166.239 386,162.5C 386.49,161.207 386.657,159.873 386.5,158.5C 384.345,158.628 382.345,158.128 380.5,157C 376.599,152.432 371.599,150.099 365.5,150C 363.004,141.687 358.67,134.354 352.5,128C 347.252,126.524 342.919,127.857 339.5,132C 336.313,132.001 333.48,132.834 331,134.5C 328.477,144.381 329.31,153.881 333.5,163C 332.901,167.489 332.401,171.989 332,176.5C 330.117,179.024 327.617,180.358 324.5,180.5C 324.799,182.604 324.466,184.604 323.5,186.5C 307.167,193.333 290.833,200.167 274.5,207C 270.376,210.885 268.209,215.719 268,221.5C 266.545,224.613 264.712,227.446 262.5,230C 263.121,235.095 264.287,239.928 266,244.5C 262.368,247.606 258.201,249.773 253.5,251C 244.187,253.261 234.854,255.261 225.5,257C 224.483,258.049 224.316,259.216 225,260.5C 227.31,262.199 229.143,264.199 230.5,266.5C 228.605,270.623 226.438,274.623 224,278.5C 215.178,287.133 206.345,295.633 197.5,304C 191.5,306.667 185.5,309.333 179.5,312C 172.971,312.156 166.971,310.489 161.5,307C 162.46,305.581 163.293,304.081 164,302.5C 163.701,296.332 165.534,290.998 169.5,286.5C 166.22,279.046 161.553,272.546 155.5,267C 152.623,266.275 149.957,266.775 147.5,268.5C 146.262,271.383 144.928,274.217 143.5,277C 139.975,277.658 137.141,276.491 135,273.5C 136.297,269.377 137.797,265.21 139.5,261C 138.221,256.707 135.721,253.207 132,250.5C 131.51,249.207 131.343,247.873 131.5,246.5C 122.146,245.554 112.813,244.721 103.5,244C 100.706,246.755 101.039,249.088 104.5,251C 103.729,253.267 102.396,255.1 100.5,256.5C 103.484,259.888 102.984,262.555 99,264.5C 96.2734,261.975 93.6067,261.975 91,264.5C 91.3418,269.872 91.1751,275.206 90.5,280.5C 92.4731,283.246 93.9731,286.246 95,289.5C 107.864,297.426 111.531,308.426 106,322.5C 100.55,329.271 94.3829,330.105 87.5,325C 85.3333,322.833 83.1667,320.667 81,318.5C 78.9973,313.154 75.9973,308.487 72,304.5C 69.8737,293.752 68.207,283.085 67,272.5C 66.2825,271.549 65.4491,271.383 64.5,272C 63.6919,274.088 62.6919,276.088 61.5,278C 60.2068,278.49 58.8734,278.657 57.5,278.5C 58.6264,268.701 60.9597,259.201 64.5,250C 67.8931,249.202 71.2265,248.202 74.5,247C 79.0497,245.041 83.3831,242.708 87.5,240C 94.3857,239.876 101.052,238.876 107.5,237C 109.405,236.174 109.739,235.007 108.5,233.5C 107.3,232.469 105.966,231.635 104.5,231C 100.159,230.907 95.8261,230.907 91.5,231C 90.91,229.701 89.91,228.868 88.5,228.5C 79.934,229.622 72.6007,233.122 66.5,239C 61.8034,239.28 57.1367,239.78 52.5,240.5C 48.6754,238.585 44.6754,237.252 40.5,236.5C 36.1712,237.824 31.8378,239.158 27.5,240.5C 27.9556,237.356 28.9556,234.356 30.5,231.5C 30.2811,230.062 29.7811,228.729 29,227.5C 25.5176,232.814 21.351,237.48 16.5,241.5C 13.9296,242.748 11.2629,243.748 8.5,244.5C 6.02816,247.307 3.02816,249.307 -0.5,250.5C -0.5,240.5 -0.5,230.5 -0.5,220.5C 8.64426,219.023 13.6443,213.69 14.5,204.5C 16.198,203.319 17.8647,203.319 19.5,204.5C 19.2907,205.086 18.9574,205.586 18.5,206C 26.199,207.635 29.3657,204.469 28,196.5C 28.3333,197.833 28.6667,199.167 29,200.5C 29.5613,201.022 30.228,201.355 31,201.5C 34.6887,198.573 38.8553,196.573 43.5,195.5C 44.3857,194.675 44.719,193.675 44.5,192.5C 50.5045,191.998 56.5045,191.832 62.5,192C 67.397,194.889 71.7304,198.555 75.5,203C 80.5178,205.56 85.6845,207.727 91,209.5C 93.5684,209.066 96.0684,208.4 98.5,207.5C 99.2421,209.108 99.4087,210.775 99,212.5C 102.29,213.645 105.29,215.312 108,217.5C 108.429,219.669 107.929,221.669 106.5,223.5C 108.743,224.474 111.076,224.808 113.5,224.5C 113.729,231.379 117.395,234.379 124.5,233.5C 124.333,233.833 124.167,234.167 124,234.5C 117.612,236.278 111.112,237.611 104.5,238.5C 104.33,239.822 104.663,240.989 105.5,242C 114.45,243.592 123.45,244.259 132.5,244C 129.833,243.667 127.167,243.333 124.5,243C 121.408,242.066 121.075,240.9 123.5,239.5C 125.571,240.618 127.738,241.618 130,242.5C 133.014,241.307 136.181,240.641 139.5,240.5C 156.181,239.115 172.848,239.282 189.5,241C 191.051,245.114 194.051,247.281 198.5,247.5C 201.848,252.01 206.015,255.677 211,258.5C 210.042,260.935 209.542,263.601 209.5,266.5C 203.149,266.07 196.815,265.403 190.5,264.5C 187.414,263.251 185.08,261.084 183.5,258C 180.584,255.657 178.25,255.99 176.5,259C 176.93,260.434 177.764,261.601 179,262.5C 179.986,267.959 179.153,273.126 176.5,278C 177.88,281.258 179.38,284.425 181,287.5C 182.216,296.285 178.383,300.785 169.5,301C 166.178,305.528 167.344,307.694 173,307.5C 175.3,307.506 177.466,307.006 179.5,306C 184.921,298.92 189.921,291.586 194.5,284C 201.114,282.462 207.447,280.128 213.5,277C 214.38,275.644 214.714,274.144 214.5,272.5C 218.694,272.27 222.194,270.603 225,267.5C 225.667,266.5 225.667,265.5 225,264.5C 223.247,261.995 221.747,259.329 220.5,256.5C 221.313,255.186 222.313,254.019 223.5,253C 234.558,248.275 245.725,243.775 257,239.5C 257.769,233.178 260.436,227.844 265,223.5C 266.408,219.943 267.408,216.276 268,212.5C 268.792,210.413 269.959,208.579 271.5,207C 288.02,199.575 304.687,192.409 321.5,185.5C 322.308,183.577 322.808,181.577 323,179.5C 329.317,175.489 332.483,169.655 332.5,162C 328.917,157.516 327.25,152.349 327.5,146.5C 327.799,140.839 328.799,135.339 330.5,130C 332.809,129.244 334.809,129.744 336.5,131.5C 339.264,130.239 341.597,128.405 343.5,126C 348.152,124.807 352.319,125.64 356,128.5C 359.833,134.333 363.667,140.167 367.5,146C 370.139,147.946 373.139,148.946 376.5,149C 381.582,156.104 387.082,156.271 393,149.5C 396.955,143.877 401.288,138.543 406,133.5C 409.558,125.825 410.391,126.492 408.5,135.5C 409.5,135.5 410.5,135.5 411.5,135.5 Z"/></g>
<g><path style="opacity:1" fill="#fbfcfd" d="M 411.5,144.5 C 411.5,152.833 411.5,161.167 411.5,169.5C 407.908,167.49 406.242,164.323 406.5,160C 406.72,154.26 408.386,149.093 411.5,144.5 Z"/></g>
<g><path style="opacity:1" fill="#d0dbe3" d="M 411.5,140.5 C 411.5,141.833 411.5,143.167 411.5,144.5C 408.386,149.093 406.72,154.26 406.5,160C 406.242,164.323 407.908,167.49 411.5,169.5C 411.5,169.833 411.5,170.167 411.5,170.5C 409.61,170.703 408.11,170.037 407,168.5C 403.365,158.365 404.865,149.032 411.5,140.5 Z"/></g>
<g><path style="opacity:1" fill="#d3dde5" d="M 411.5,125.5 C 411.5,128.833 411.5,132.167 411.5,135.5C 410.5,135.5 409.5,135.5 408.5,135.5C 410.391,126.492 409.558,125.825 406,133.5C 401.288,138.543 396.955,143.877 393,149.5C 387.082,156.271 381.582,156.104 376.5,149C 373.139,148.946 370.139,147.946 367.5,146C 363.667,140.167 359.833,134.333 356,128.5C 352.319,125.64 348.152,124.807 343.5,126C 341.597,128.405 339.264,130.239 336.5,131.5C 334.809,129.744 332.809,129.244 330.5,130C 328.799,135.339 327.799,140.839 327.5,146.5C 327.25,152.349 328.917,157.516 332.5,162C 332.483,169.655 329.317,175.489 323,179.5C 322.808,181.577 322.308,183.577 321.5,185.5C 304.687,192.409 288.02,199.575 271.5,207C 269.959,208.579 268.792,210.413 268,212.5C 267.408,216.276 266.408,219.943 265,223.5C 260.436,227.844 257.769,233.178 257,239.5C 245.725,243.775 234.558,248.275 223.5,253C 222.313,254.019 221.313,255.186 220.5,256.5C 221.747,259.329 223.247,261.995 225,264.5C 225.667,265.5 225.667,266.5 225,267.5C 222.194,270.603 218.694,272.27 214.5,272.5C 214.714,274.144 214.38,275.644 213.5,277C 207.447,280.128 201.114,282.462 194.5,284C 189.921,291.586 184.921,298.92 179.5,306C 177.466,307.006 175.3,307.506 173,307.5C 167.344,307.694 166.178,305.528 169.5,301C 178.383,300.785 182.216,296.285 181,287.5C 179.38,284.425 177.88,281.258 176.5,278C 179.153,273.126 179.986,267.959 179,262.5C 177.764,261.601 176.93,260.434 176.5,259C 178.25,255.99 180.584,255.657 183.5,258C 185.08,261.084 187.414,263.251 190.5,264.5C 196.815,265.403 203.149,266.07 209.5,266.5C 209.542,263.601 210.042,260.935 211,258.5C 206.015,255.677 201.848,252.01 198.5,247.5C 194.051,247.281 191.051,245.114 189.5,241C 172.848,239.282 156.181,239.115 139.5,240.5C 136.181,240.641 133.014,241.307 130,242.5C 127.738,241.618 125.571,240.618 123.5,239.5C 121.075,240.9 121.408,242.066 124.5,243C 127.167,243.333 129.833,243.667 132.5,244C 123.45,244.259 114.45,243.592 105.5,242C 104.663,240.989 104.33,239.822 104.5,238.5C 111.112,237.611 117.612,236.278 124,234.5C 124.167,234.167 124.333,233.833 124.5,233.5C 117.395,234.379 113.729,231.379 113.5,224.5C 111.076,224.808 108.743,224.474 106.5,223.5C 107.929,221.669 108.429,219.669 108,217.5C 105.29,215.312 102.29,213.645 99,212.5C 99.4087,210.775 99.2421,209.108 98.5,207.5C 96.0684,208.4 93.5684,209.066 91,209.5C 85.6845,207.727 80.5178,205.56 75.5,203C 71.7304,198.555 67.397,194.889 62.5,192C 56.5045,191.832 50.5045,191.998 44.5,192.5C 44.719,193.675 44.3857,194.675 43.5,195.5C 38.8553,196.573 34.6887,198.573 31,201.5C 30.228,201.355 29.5613,201.022 29,200.5C 28.6667,199.167 28.3333,197.833 28,196.5C 29.3657,204.469 26.199,207.635 18.5,206C 18.9574,205.586 19.2907,205.086 19.5,204.5C 17.8647,203.319 16.198,203.319 14.5,204.5C 13.6443,213.69 8.64426,219.023 -0.5,220.5C -0.5,219.833 -0.5,219.167 -0.5,218.5C 3.68644,218.247 7.18644,216.581 10,213.5C 10.8011,209.806 11.9678,206.306 13.5,203C 14.8732,202.125 16.3732,201.625 18,201.5C 20.1851,203.108 22.6851,204.108 25.5,204.5C 25.2161,201.223 25.5495,198.057 26.5,195C 27.5,194.333 28.5,194.333 29.5,195C 30.0897,196.509 30.7564,198.009 31.5,199.5C 33.9242,198.577 35.9242,197.077 37.5,195C 34.1776,194.941 31.3443,193.774 29,191.5C 28.0585,188.77 29.0585,187.437 32,187.5C 36.1395,188.935 40.3061,190.269 44.5,191.5C 48.637,190.639 52.8036,189.973 57,189.5C 64.7333,189.785 70.5666,193.285 74.5,200C 79.5653,203.449 85.0653,205.949 91,207.5C 94.4661,206.591 97.9661,205.924 101.5,205.5C 101.5,207.833 101.5,210.167 101.5,212.5C 108.943,212.92 111.61,216.586 109.5,223.5C 111.5,223.5 113.5,223.5 115.5,223.5C 115.104,226.044 115.771,228.211 117.5,230C 121.099,231.014 124.765,231.847 128.5,232.5C 127.307,234.527 125.64,236.027 123.5,237C 125.848,237.346 127.681,238.513 129,240.5C 129.5,240 130,239.5 130.5,239C 150.169,237.046 169.835,237.046 189.5,239C 191.213,240.378 192.547,242.045 193.5,244C 195.235,244.651 196.902,244.485 198.5,243.5C 199.406,245.386 200.406,247.22 201.5,249C 202.793,249.49 204.127,249.657 205.5,249.5C 205.343,250.873 205.51,252.207 206,253.5C 209.178,254.67 211.678,256.67 213.5,259.5C 211.39,261.925 210.89,264.592 212,267.5C 204.26,267.824 196.426,267.824 188.5,267.5C 186.828,264.308 184.495,261.475 181.5,259C 180.5,258.333 179.5,258.333 178.5,259C 180.366,261.069 181.699,263.402 182.5,266C 181.566,270.134 180.233,274.134 178.5,278C 182.101,283.596 183.434,289.763 182.5,296.5C 184.129,295.375 185.629,294.041 187,292.5C 188.455,289.088 190.288,285.921 192.5,283C 198.895,280.818 205.229,278.485 211.5,276C 212.13,274.108 213.13,272.441 214.5,271C 217.973,270.681 220.806,269.181 223,266.5C 221.622,263.065 220.122,259.565 218.5,256C 220.167,254.333 221.833,252.667 223.5,251C 233.824,246.446 244.324,242.28 255,238.5C 255.975,232.559 258.641,227.559 263,223.5C 263.698,215.707 266.865,209.207 272.5,204C 288.288,197.793 303.955,191.293 319.5,184.5C 320.298,182.922 320.798,181.256 321,179.5C 326.602,175.06 329.769,169.226 330.5,162C 328.959,160.421 327.792,158.587 327,156.5C 325,148.833 325,141.167 327,133.5C 328.087,127.313 331.254,125.979 336.5,129.5C 338.65,127.851 340.65,126.018 342.5,124C 346.527,123.669 350.527,124.002 354.5,125C 359.833,132 365.167,139 370.5,146C 372.9,146.186 375.234,146.686 377.5,147.5C 379.172,153.049 382.505,154.549 387.5,152C 395.219,143.882 402.219,135.216 408.5,126C 409.448,125.517 410.448,125.351 411.5,125.5 Z"/></g>
<g><path style="opacity:1" fill="#fafbfc" d="M 30.5,190.5 C 33.5203,189.528 36.5203,190.028 39.5,192C 36.1769,192.932 33.1769,192.432 30.5,190.5 Z"/></g>
<g><path style="opacity:1" fill="#d2dde4" d="M 326.5,527.5 C 325.5,527.5 324.5,527.5 323.5,527.5C 311.628,518.136 300.462,507.803 290,496.5C 289.504,494.965 289.67,493.465 290.5,492C 289.5,490.333 288.5,488.667 287.5,487C 287.95,485.715 288.617,484.548 289.5,483.5C 288.415,480.227 288.248,476.894 289,473.5C 290.127,470.161 291.627,466.994 293.5,464C 292.692,463.692 292.025,463.192 291.5,462.5C 292.472,460.364 294.139,459.197 296.5,459C 295.643,458.311 294.977,457.478 294.5,456.5C 298.817,453.848 302.484,450.515 305.5,446.5C 307.315,442.377 309.315,438.377 311.5,434.5C 310.218,431.273 310.718,428.273 313,425.5C 315.795,423.707 318.295,421.54 320.5,419C 322.436,418.187 324.436,417.687 326.5,417.5C 326.514,404.498 332.847,397.164 345.5,395.5C 345.662,393.473 345.495,391.473 345,389.5C 342.291,392.368 339.124,393.035 335.5,391.5C 341.182,387.01 340.182,384.843 332.5,385C 331.833,384.333 331.167,383.667 330.5,383C 335.201,382.072 339.868,381.072 344.5,380C 345.329,378.184 346.163,376.351 347,374.5C 347.661,369.289 346.495,368.622 343.5,372.5C 342.5,371.833 341.5,371.167 340.5,370.5C 337.038,372.391 333.372,372.891 329.5,372C 333.833,369 338.167,366 342.5,363C 339.462,360.297 336.795,357.297 334.5,354C 330.65,355.164 326.65,355.498 322.5,355C 319.743,354.122 317.076,353.122 314.5,352C 315.563,350.812 316.897,350.312 318.5,350.5C 313.98,344.067 314.98,343.067 321.5,347.5C 322.308,347.192 322.975,346.692 323.5,346C 318.737,344.966 314.403,342.966 310.5,340C 313.531,339.505 316.531,339.671 319.5,340.5C 319.5,339.5 319.5,338.5 319.5,337.5C 314.496,337.111 309.496,336.611 304.5,336C 301.847,333.424 302.514,331.924 306.5,331.5C 314.961,333.359 315.461,331.692 308,326.5C 306.495,322.65 304.995,318.817 303.5,315C 309.265,313.26 311.931,315.427 311.5,321.5C 312.833,321.5 314.167,321.5 315.5,321.5C 315.5,323.5 315.5,325.5 315.5,327.5C 321.291,326.489 326.124,328.156 330,332.5C 330.333,333.833 330.667,335.167 331,336.5C 332.737,330.269 333.404,323.936 333,317.5C 331.833,316.333 330.667,315.167 329.5,314C 324.711,312.878 321.044,310.211 318.5,306C 319.5,305.5 320.5,305 321.5,304.5C 324.702,305.127 327.869,305.794 331,306.5C 331.471,304.754 332.138,303.087 333,301.5C 336.511,293.959 335.677,286.793 330.5,280C 329.207,279.51 327.873,279.343 326.5,279.5C 326.238,278.022 326.571,276.689 327.5,275.5C 332.037,274.154 336.371,272.321 340.5,270C 344.5,266 348.5,262 352.5,258C 351.5,257.333 350.5,257.333 349.5,258C 348.5,259.667 347.167,261 345.5,262C 340.34,263.498 335.507,265.664 331,268.5C 330.5,268.333 330,268.167 329.5,268C 336.286,258.935 344.952,252.268 355.5,248C 360.034,243.801 364.201,239.301 368,234.5C 369.583,236.993 371.083,236.826 372.5,234C 367.082,231.365 361.582,229.198 356,227.5C 355.289,225.101 355.456,222.768 356.5,220.5C 354.703,218.869 353.536,216.869 353,214.5C 352.976,208.79 352.81,203.123 352.5,197.5C 352.608,196.558 352.941,195.725 353.5,195C 358.983,194.901 361.316,192.067 360.5,186.5C 361.5,186.5 362.5,186.5 363.5,186.5C 362.185,181.164 364.185,178.497 369.5,178.5C 369.5,177.5 369.5,176.5 369.5,175.5C 373.825,175.898 376.325,173.898 377,169.5C 380.551,166.806 383.051,163.472 384.5,159.5C 380.144,158.821 376.477,156.821 373.5,153.5C 370.116,152.857 366.783,152.023 363.5,151C 361.285,142.762 357.285,135.428 351.5,129C 349.5,128.333 347.5,128.333 345.5,129C 342.223,133.82 337.889,135.32 332.5,133.5C 331.492,140.472 331.325,147.472 332,154.5C 334.133,156.933 335.3,159.767 335.5,163C 334.927,167.158 334.427,171.324 334,175.5C 332.667,178.167 330.667,180.167 328,181.5C 327.798,183.256 327.298,184.922 326.5,186.5C 309.73,194.218 292.73,201.385 275.5,208C 273.951,209.214 272.785,210.714 272,212.5C 271.533,219.262 269.033,225.095 264.5,230C 265.215,235.432 266.382,240.599 268,245.5C 256.005,253.105 242.839,256.938 228.5,257C 227.833,257.667 227.167,258.333 226.5,259C 229.103,261.094 231.103,263.594 232.5,266.5C 231.611,269.279 230.444,271.945 229,274.5C 222.248,283.795 214.082,291.629 204.5,298C 202.38,300.409 200.38,302.909 198.5,305.5C 194.381,307.059 190.381,308.893 186.5,311C 178.058,314.239 169.724,313.906 161.5,310C 160.426,309.261 159.759,308.261 159.5,307C 162.003,302.567 163.17,297.733 163,292.5C 163.69,289.804 165.19,287.637 167.5,286C 164.114,278.455 159.114,272.288 152.5,267.5C 148.732,269.756 146.398,273.089 145.5,277.5C 142.894,278.652 140.227,278.818 137.5,278C 133.818,276.68 132.318,274.18 133,270.5C 135.173,267.654 136.673,264.488 137.5,261C 137.142,258.968 136.308,257.134 135,255.5C 131.922,253.673 130.088,251.006 129.5,247.5C 121.002,247.463 112.668,246.963 104.5,246C 104.167,246.333 103.833,246.667 103.5,247C 104.687,248.019 105.687,249.186 106.5,250.5C 105.783,252.828 104.783,254.995 103.5,257C 105.102,259.971 104.769,262.638 102.5,265C 99.2251,265.07 96.0584,265.237 93,265.5C 92.6237,273.034 93.6237,280.367 96,287.5C 100.279,291.289 104.279,295.289 108,299.5C 109.664,303.156 110.497,306.99 110.5,311C 111.264,322.37 106.097,328.537 95,329.5C 89.0575,328.255 84.0575,325.255 80,320.5C 76.5722,313.971 72.9055,307.638 69,301.5C 67.5332,295.323 67.0332,289.156 67.5,283C 66.0452,280.752 65.2118,278.252 65,275.5C 63.3088,279.213 60.4755,280.379 56.5,279C 56.2152,268.745 58.2152,258.745 62.5,249C 71.2552,246.233 79.5886,242.566 87.5,238C 91.5,237.667 95.5,237.333 99.5,237C 101.962,235.784 104.629,235.118 107.5,235C 105.626,233.565 103.626,232.398 101.5,231.5C 96.6634,234.493 92.1634,234.16 88,230.5C 79.3057,231.541 71.8057,235.041 65.5,241C 56.569,242.48 48.069,241.313 40,237.5C 36.2747,239.386 32.4413,241.053 28.5,242.5C 26.7282,241.73 25.7282,240.397 25.5,238.5C 26.94,236.306 27.7734,233.973 28,231.5C 23.5748,238.596 17.4082,243.429 9.5,246C 6.64975,248.924 3.31642,251.091 -0.5,252.5C -0.5,251.833 -0.5,251.167 -0.5,250.5C 3.02816,249.307 6.02816,247.307 8.5,244.5C 11.2629,243.748 13.9296,242.748 16.5,241.5C 21.351,237.48 25.5176,232.814 29,227.5C 29.7811,228.729 30.2811,230.062 30.5,231.5C 28.9556,234.356 27.9556,237.356 27.5,240.5C 31.8378,239.158 36.1712,237.824 40.5,236.5C 44.6754,237.252 48.6754,238.585 52.5,240.5C 57.1367,239.78 61.8034,239.28 66.5,239C 72.6007,233.122 79.934,229.622 88.5,228.5C 89.91,228.868 90.91,229.701 91.5,231C 95.8261,230.907 100.159,230.907 104.5,231C 105.966,231.635 107.3,232.469 108.5,233.5C 109.739,235.007 109.405,236.174 107.5,237C 101.052,238.876 94.3857,239.876 87.5,240C 83.3831,242.708 79.0497,245.041 74.5,247C 71.2265,248.202 67.8931,249.202 64.5,250C 60.9597,259.201 58.6264,268.701 57.5,278.5C 58.8734,278.657 60.2068,278.49 61.5,278C 62.6919,276.088 63.6919,274.088 64.5,272C 65.4491,271.383 66.2825,271.549 67,272.5C 68.207,283.085 69.8737,293.752 72,304.5C 75.9973,308.487 78.9973,313.154 81,318.5C 83.1667,320.667 85.3333,322.833 87.5,325C 94.3829,330.105 100.55,329.271 106,322.5C 111.531,308.426 107.864,297.426 95,289.5C 93.9731,286.246 92.4731,283.246 90.5,280.5C 91.1751,275.206 91.3418,269.872 91,264.5C 93.6067,261.975 96.2734,261.975 99,264.5C 102.984,262.555 103.484,259.888 100.5,256.5C 102.396,255.1 103.729,253.267 104.5,251C 101.039,249.088 100.706,246.755 103.5,244C 112.813,244.721 122.146,245.554 131.5,246.5C 131.343,247.873 131.51,249.207 132,250.5C 135.721,253.207 138.221,256.707 139.5,261C 137.797,265.21 136.297,269.377 135,273.5C 137.141,276.491 139.975,277.658 143.5,277C 144.928,274.217 146.262,271.383 147.5,268.5C 149.957,266.775 152.623,266.275 155.5,267C 161.553,272.546 166.22,279.046 169.5,286.5C 165.534,290.998 163.701,296.332 164,302.5C 163.293,304.081 162.46,305.581 161.5,307C 166.971,310.489 172.971,312.156 179.5,312C 185.5,309.333 191.5,306.667 197.5,304C 206.345,295.633 215.178,287.133 224,278.5C 226.438,274.623 228.605,270.623 230.5,266.5C 229.143,264.199 227.31,262.199 225,260.5C 224.316,259.216 224.483,258.049 225.5,257C 234.854,255.261 244.187,253.261 253.5,251C 258.201,249.773 262.368,247.606 266,244.5C 264.287,239.928 263.121,235.095 262.5,230C 264.712,227.446 266.545,224.613 268,221.5C 268.209,215.719 270.376,210.885 274.5,207C 290.833,200.167 307.167,193.333 323.5,186.5C 324.466,184.604 324.799,182.604 324.5,180.5C 327.617,180.358 330.117,179.024 332,176.5C 332.401,171.989 332.901,167.489 333.5,163C 329.31,153.881 328.477,144.381 331,134.5C 333.48,132.834 336.313,132.001 339.5,132C 342.919,127.857 347.252,126.524 352.5,128C 358.67,134.354 363.004,141.687 365.5,150C 371.599,150.099 376.599,152.432 380.5,157C 382.345,158.128 384.345,158.628 386.5,158.5C 386.657,159.873 386.49,161.207 386,162.5C 381.932,166.239 378.599,170.572 376,175.5C 374.556,177.155 372.722,177.822 370.5,177.5C 370.5,178.5 370.5,179.5 370.5,180.5C 369.167,180.5 367.833,180.5 366.5,180.5C 366.66,182.199 366.494,183.866 366,185.5C 363.421,187.534 361.754,190.201 361,193.5C 359.491,195.919 357.325,196.919 354.5,196.5C 354.827,198.488 355.16,200.488 355.5,202.5C 352.424,209.419 353.757,215.253 359.5,220C 357.984,221.897 357.317,224.064 357.5,226.5C 359.199,226.34 360.866,226.506 362.5,227C 365.156,228.91 367.989,230.41 371,231.5C 373.32,230.561 374.987,228.895 376,226.5C 377.353,227.685 378.52,229.019 379.5,230.5C 377.208,232.657 374.875,234.824 372.5,237C 366.146,240.057 360.479,244.391 355.5,250C 348.914,253.207 342.747,257.041 337,261.5C 336.333,262.167 336.333,262.833 337,263.5C 338.945,262.137 341.112,261.303 343.5,261C 345.833,260 347.5,258.333 348.5,256C 351.167,255.333 353.833,255.333 356.5,256C 351.167,261.333 345.833,266.667 340.5,272C 336.417,273.745 332.417,275.579 328.5,277.5C 329.991,278.244 331.491,278.91 333,279.5C 335.56,283.464 337.06,287.798 337.5,292.5C 335.526,298.334 334.193,304.334 333.5,310.5C 331.641,310.539 330.308,309.706 329.5,308C 327.421,307.192 325.421,307.359 323.5,308.5C 325.677,310.758 328.343,312.258 331.5,313C 333.049,314.214 334.215,315.714 335,317.5C 335.196,325.432 334.363,333.265 332.5,341C 332.968,343.857 333.134,346.691 333,349.5C 331.488,348.743 330.154,347.743 329,346.5C 327.337,342.216 327.004,337.883 328,333.5C 324.588,330.121 320.422,328.621 315.5,329C 313.845,327.556 313.178,325.722 313.5,323.5C 312.448,323.649 311.448,323.483 310.5,323C 309.76,321.215 309.093,319.382 308.5,317.5C 307.833,316.167 307.167,316.167 306.5,317.5C 307.195,320.28 308.195,322.947 309.5,325.5C 312.55,327.549 314.883,330.216 316.5,333.5C 315.271,334.281 313.938,334.781 312.5,335C 315.167,335.333 317.833,335.667 320.5,336C 322.459,338.316 322.459,340.316 320.5,342C 322.305,342.972 323.972,344.139 325.5,345.5C 322.538,348.388 323.205,349.721 327.5,349.5C 327.703,351.39 327.037,352.89 325.5,354C 329.023,352.918 332.69,352.585 336.5,353C 339.833,357 343.167,361 346.5,365C 342.201,365.317 338.535,366.983 335.5,370C 337.256,370.14 338.922,369.64 340.5,368.5C 341.167,368.833 341.833,369.167 342.5,369.5C 346.453,366.487 349.12,367.487 350.5,372.5C 348.495,375.03 347.161,377.863 346.5,381C 342.954,382.174 339.287,382.84 335.5,383C 339.44,383.339 341.773,385.506 342.5,389.5C 344.258,388.872 345.758,387.872 347,386.5C 347.498,389.817 347.665,393.15 347.5,396.5C 345.473,396.338 343.473,396.505 341.5,397C 332.722,401.366 328.056,408.532 327.5,418.5C 321.915,419.875 317.415,422.875 314,427.5C 312.557,439.548 307.057,449.381 297.5,457C 299.021,460.017 298.021,461.85 294.5,462.5C 295.063,466.545 293.896,470.212 291,473.5C 289.996,476.993 290.496,480.159 292.5,483C 291.313,484.019 290.313,485.186 289.5,486.5C 292.106,489.132 292.939,492.132 292,495.5C 302.445,507.443 313.945,518.11 326.5,527.5 Z"/></g>
<g><path style="opacity:1" fill="#9fb6c6" d="M 318.5,350.5 C 319.482,349.859 320.482,349.193 321.5,348.5C 322.7,350.107 322.2,351.107 320,351.5C 319.235,351.43 318.735,351.097 318.5,350.5 Z"/></g>
<g><path style="opacity:1" fill="#fbfcfd" d="M 182.5,296.5 C 181.185,304.157 176.852,306.823 169.5,304.5C 171.864,302.904 174.53,301.738 177.5,301C 179.659,299.941 181.326,298.441 182.5,296.5 Z"/></g>
<g><path style="opacity:1" fill="#f7f9fa" d="M 115.5,237.5 C 117.527,237.338 119.527,237.505 121.5,238C 120.62,239.356 120.286,240.856 120.5,242.5C 116.267,241.251 111.934,240.418 107.5,240C 110.457,239.721 113.123,238.887 115.5,237.5 Z"/></g>
<g><path style="opacity:1" fill="#d1dce4" d="M 269.5,527.5 C 268.5,527.5 267.5,527.5 266.5,527.5C 260.117,522.315 252.784,519.982 244.5,520.5C 244.762,521.978 244.429,523.311 243.5,524.5C 242.145,525.188 241.145,526.188 240.5,527.5C 239.833,527.5 239.167,527.5 238.5,527.5C 241.087,525.08 243.087,522.246 244.5,519C 254.025,518.434 262.358,521.267 269.5,527.5 Z"/></g>
<g><path style="opacity:1" fill="#fdfdfe" d="M 266.5,527.5 C 257.833,527.5 249.167,527.5 240.5,527.5C 241.145,526.188 242.145,525.188 243.5,524.5C 244.429,523.311 244.762,521.978 244.5,520.5C 252.784,519.982 260.117,522.315 266.5,527.5 Z"/></g>
<g><path style="opacity:1" fill="#d4dee6" d="M 219.5,527.5 C 216.5,527.5 213.5,527.5 210.5,527.5C 208.035,526.583 205.535,525.583 203,524.5C 200.785,524.9 198.952,525.9 197.5,527.5C 196.167,527.5 194.833,527.5 193.5,527.5C 196.396,525.467 199.563,523.8 203,522.5C 208.464,524.556 213.964,526.222 219.5,527.5 Z"/></g>
<g><path style="opacity:1" fill="#fbfcfc" d="M 210.5,527.5 C 206.167,527.5 201.833,527.5 197.5,527.5C 198.952,525.9 200.785,524.9 203,524.5C 205.535,525.583 208.035,526.583 210.5,527.5 Z"/></g>
</svg>
